STARTFONT 2.1
FONT tvsys113
SIZE 20 72 72
FONTBOUNDINGBOX 13 20 0 0
COMMENT "Generated by fontforge, http://fontforge.sourceforge.net"
STARTPROPERTIES 9
SPACING "P"
_XMBDFED_INFO "Edited with xmbdfed 4.4."
POINT_SIZE 200
WEIGHT 10
RESOLUTION 99
RESOLUTION_X 72
RESOLUTION_Y 72
X_HEIGHT 0
QUAD_WIDTH 11
ENDPROPERTIES
CHARS 256
STARTCHAR H00
ENCODING 0
SWIDTH 650 0
DWIDTH 13 0
BBX 0 0 0 0
BITMAP
ENDCHAR
STARTCHAR H01
ENCODING 1
SWIDTH 650 0
DWIDTH 13 0
BBX 10 17 1 2
BITMAP
00C0
1EC0
3F80
7380
6380
6780
6780
6D80
6D80
6D80
7980
7980
7180
7380
FF00
DE00
C000
ENDCHAR
STARTCHAR H02
ENCODING 2
SWIDTH 650 0
DWIDTH 13 0
BBX 8 15 2 3
BITMAP
3C
7E
E7
C3
C7
CB
CB
D3
D3
E3
E3
C3
E7
7E
3C
ENDCHAR
STARTCHAR H03
ENCODING 3
SWIDTH 650 0
DWIDTH 13 0
BBX 8 15 2 3
BITMAP
3C
7E
E7
C3
C3
C3
DB
DB
DB
C3
C3
C3
E7
7E
3C
ENDCHAR
STARTCHAR H04
ENCODING 4
SWIDTH 650 0
DWIDTH 13 0
BBX 8 15 2 3
BITMAP
3C
7E
E7
C3
C3
C3
C3
C7
CB
D3
E3
C3
E7
7E
3C
ENDCHAR
STARTCHAR H05
ENCODING 5
SWIDTH 650 0
DWIDTH 13 0
BBX 8 15 2 3
BITMAP
3C
7E
E7
C7
CF
CF
DB
DB
DB
F3
F3
E3
E7
7E
3C
ENDCHAR
STARTCHAR H06
ENCODING 6
SWIDTH 650 0
DWIDTH 13 0
BBX 6 15 3 3
BITMAP
78
FC
CC
CC
CC
CC
CC
CC
CC
CC
CC
CC
CC
FC
78
ENDCHAR
STARTCHAR H07
ENCODING 7
SWIDTH 650 0
DWIDTH 13 0
BBX 8 8 3 6
BITMAP
3C
7E
FF
FF
FF
FF
7E
3C
ENDCHAR
STARTCHAR H08
ENCODING 8
SWIDTH 650 0
DWIDTH 13 0
BBX 8 15 2 3
BITMAP
3C
7E
E7
C3
C3
C3
C3
C3
C3
C3
C3
C3
E7
7E
3C
ENDCHAR
STARTCHAR H09
ENCODING 9
SWIDTH 600 0
DWIDTH 12 0
BBX 11 11 1 6
BITMAP
0E00
3180
4040
4040
8020
8020
8020
4040
4040
3180
0E00
ENDCHAR
STARTCHAR H0a
ENCODING 10
SWIDTH 650 0
DWIDTH 13 0
BBX 0 0 0 0
BITMAP
ENDCHAR
STARTCHAR H0b
ENCODING 11
SWIDTH 650 0
DWIDTH 13 0
BBX 10 15 1 3
BITMAP
3F00
7F80
E1C0
C0C0
C0C0
C0C0
C0C0
C0C0
C0C0
C0C0
C0C0
C0C0
E1C0
7F80
3F00
ENDCHAR
STARTCHAR H0c
ENCODING 12
SWIDTH 650 0
DWIDTH 13 0
BBX 10 15 1 3
BITMAP
7F80
FFC0
C0C0
C0C0
C0C0
C0C0
C0C0
C0C0
C0C0
C0C0
C0C0
C0C0
C0C0
FFC0
7F80
ENDCHAR
STARTCHAR H0d
ENCODING 13
SWIDTH 650 0
DWIDTH 13 0
BBX 8 15 2 3
BITMAP
3C
7E
E7
C3
C7
CB
CB
D3
D3
E3
E3
C3
E7
7E
3C
ENDCHAR
STARTCHAR H0e
ENCODING 14
SWIDTH 650 0
DWIDTH 13 0
BBX 8 15 2 3
BITMAP
3C
7E
E7
C3
C7
CF
CB
DB
D3
F3
E3
C3
E7
7E
3C
ENDCHAR
STARTCHAR H0f
ENCODING 15
SWIDTH 650 0
DWIDTH 13 0
BBX 6 13 3 5
BITMAP
70
70
70
00
00
FC
00
00
FC
00
70
70
70
ENDCHAR
STARTCHAR H10
ENCODING 16
SWIDTH 650 0
DWIDTH 13 0
BBX 10 13 0 5
BITMAP
8000
8000
E000
F000
F000
FE00
FFC0
FFC0
FE00
F000
E000
E000
8000
ENDCHAR
STARTCHAR H11
ENCODING 17
SWIDTH 650 0
DWIDTH 13 0
BBX 10 13 0 5
BITMAP
0040
0040
01C0
03C0
03C0
1FC0
FFC0
FFC0
1FC0
03C0
01C0
01C0
0040
ENDCHAR
STARTCHAR H12
ENCODING 18
SWIDTH 650 0
DWIDTH 13 0
BBX 9 13 1 5
BITMAP
1C00
1C00
3F00
FF80
FF80
1C00
1C00
1C00
1C00
FF80
3F00
3F00
1C00
ENDCHAR
STARTCHAR H13
ENCODING 19
SWIDTH 650 0
DWIDTH 13 0
BBX 9 13 1 5
BITMAP
E380
E380
E380
E380
E380
E380
E380
E380
E380
0000
E380
E380
E380
ENDCHAR
STARTCHAR H14
ENCODING 20
SWIDTH 650 0
DWIDTH 13 0
BBX 3 8 7 10
BITMAP
C0
C0
00
00
00
00
E0
E0
ENDCHAR
STARTCHAR H15
ENCODING 21
SWIDTH 650 0
DWIDTH 13 0
BBX 10 19 0 0
BITMAP
7F80
E1C0
E1C0
7000
1E00
1E00
7380
E1C0
E1C0
E1C0
7380
1E00
1E00
0380
E1C0
E1C0
7F80
7F80
7F80
ENDCHAR
STARTCHAR H16
ENCODING 22
SWIDTH 650 0
DWIDTH 13 0
BBX 10 4 0 5
BITMAP
FFC0
FFC0
FFC0
FFC0
ENDCHAR
STARTCHAR H17
ENCODING 23
SWIDTH 650 0
DWIDTH 13 0
BBX 9 15 1 3
BITMAP
1C00
1C00
3F00
FF80
FF80
1C00
1C00
1C00
1C00
FF80
3F00
3F00
1C00
FF80
FF80
ENDCHAR
STARTCHAR H18
ENCODING 24
SWIDTH 650 0
DWIDTH 13 0
BBX 12 16 0 3
BITMAP
0600
0F00
1F80
36C0
6660
C630
0600
0600
0600
0600
0600
0600
0600
0600
0600
0600
ENDCHAR
STARTCHAR H19
ENCODING 25
SWIDTH 650 0
DWIDTH 13 0
BBX 12 16 0 3
BITMAP
0600
0600
0600
0600
0600
0600
0600
0600
0600
8610
C630
6660
36C0
1F80
0F00
0600
ENDCHAR
STARTCHAR H1a
ENCODING 26
SWIDTH 650 0
DWIDTH 13 0
BBX 12 12 0 5
BITMAP
0200
0300
0180
00C0
0060
FFF0
FFF0
0060
00C0
0180
0300
0200
ENDCHAR
STARTCHAR H1b
ENCODING 27
SWIDTH 650 0
DWIDTH 13 0
BBX 12 12 0 5
BITMAP
0400
0C00
1800
3000
6000
FFF0
FFF0
6000
3000
1800
0C00
0400
ENDCHAR
STARTCHAR H1c
ENCODING 28
SWIDTH 650 0
DWIDTH 13 0
BBX 10 5 0 8
BITMAP
E000
E000
E000
E000
FFC0
ENDCHAR
STARTCHAR H1d
ENCODING 29
SWIDTH 650 0
DWIDTH 13 0
BBX 10 7 0 8
BITMAP
1200
1200
7380
FFC0
FFC0
7380
1200
ENDCHAR
STARTCHAR H1e
ENCODING 30
SWIDTH 650 0
DWIDTH 13 0
BBX 11 11 1 5
BITMAP
0400
0E00
0E00
1F00
1F00
3F80
3F80
7FC0
7FC0
FFE0
FFE0
ENDCHAR
STARTCHAR H1f
ENCODING 31
SWIDTH 650 0
DWIDTH 13 0
BBX 10 10 0 6
BITMAP
FFC0
FFC0
FFC0
7F80
7F80
7F80
1E00
1E00
0C00
0C00
ENDCHAR
STARTCHAR H20
ENCODING 32
SWIDTH 650 0
DWIDTH 13 0
BBX 0 0 0 0
BITMAP
ENDCHAR
STARTCHAR H21
ENCODING 33
SWIDTH 650 0
DWIDTH 13 0
BBX 2 15 5 3
BITMAP
C0
C0
C0
C0
C0
C0
C0
C0
C0
00
00
C0
C0
C0
C0
ENDCHAR
STARTCHAR H22
ENCODING 34
SWIDTH 650 0
DWIDTH 13 0
BBX 6 4 3 14
BITMAP
CC
CC
CC
CC
ENDCHAR
STARTCHAR H23
ENCODING 35
SWIDTH 650 0
DWIDTH 13 0
BBX 10 15 1 3
BITMAP
3300
3300
3300
FFC0
FFC0
3300
3300
3300
3300
FFC0
FFC0
3300
3300
3300
3300
ENDCHAR
STARTCHAR H24
ENCODING 36
SWIDTH 650 0
DWIDTH 13 0
BBX 8 15 2 3
BITMAP
18
18
7E
FF
C3
C0
FE
7E
03
03
C3
FF
7E
18
18
ENDCHAR
STARTCHAR H25
ENCODING 37
SWIDTH 650 0
DWIDTH 13 0
BBX 10 15 1 3
BITMAP
C0C0
C0C0
C180
0180
0300
0600
0600
0C00
1800
1800
3000
6000
60C0
C0C0
C0C0
ENDCHAR
STARTCHAR H26
ENCODING 38
SWIDTH 650 0
DWIDTH 13 0
BBX 10 15 1 3
BITMAP
1E00
3F00
7380
6180
7380
3F00
1E00
3E00
76C0
67C0
E780
C300
C300
FF80
7DC0
ENDCHAR
STARTCHAR H27
ENCODING 39
SWIDTH 650 0
DWIDTH 13 0
BBX 3 4 4 14
BITMAP
60
60
60
C0
ENDCHAR
STARTCHAR H28
ENCODING 40
SWIDTH 650 0
DWIDTH 13 0
BBX 6 15 1 3
BITMAP
3C
70
70
E0
C0
C0
C0
C0
C0
C0
C0
E0
60
70
3C
ENDCHAR
STARTCHAR H29
ENCODING 41
SWIDTH 650 0
DWIDTH 13 0
BBX 6 15 5 3
BITMAP
F0
38
18
1C
0C
0C
0C
0C
0C
0C
0C
1C
18
38
F0
ENDCHAR
STARTCHAR H2a
ENCODING 42
SWIDTH 650 0
DWIDTH 13 0
BBX 11 11 1 5
BITMAP
8420
4440
2480
1500
0E00
FFE0
0E00
1500
2480
4440
8420
ENDCHAR
STARTCHAR H2b
ENCODING 43
SWIDTH 650 0
DWIDTH 13 0
BBX 11 11 1 5
BITMAP
0400
0400
0400
0400
0400
FFE0
0400
0400
0400
0400
0400
ENDCHAR
STARTCHAR H2c
ENCODING 44
SWIDTH 650 0
DWIDTH 13 0
BBX 3 4 4 2
BITMAP
60
60
60
C0
ENDCHAR
STARTCHAR H2d
ENCODING 45
SWIDTH 650 0
DWIDTH 13 0
BBX 10 2 1 9
BITMAP
FFC0
FFC0
ENDCHAR
STARTCHAR H2e
ENCODING 46
SWIDTH 650 0
DWIDTH 13 0
BBX 2 3 5 3
BITMAP
C0
C0
C0
ENDCHAR
STARTCHAR H2f
ENCODING 47
SWIDTH 650 0
DWIDTH 13 0
BBX 10 15 1 3
BITMAP
00C0
00C0
0180
0180
0300
0600
0600
0C00
1800
1800
3000
6000
6000
C000
C000
ENDCHAR
STARTCHAR H30
ENCODING 48
SWIDTH 650 0
DWIDTH 13 0
BBX 8 15 2 3
BITMAP
7E
FF
C3
C7
C7
C7
CB
CB
D3
D3
E3
E3
E3
FF
7E
ENDCHAR
STARTCHAR H31
ENCODING 49
SWIDTH 650 0
DWIDTH 13 0
BBX 8 15 2 3
BITMAP
18
38
78
F8
D8
18
18
18
18
18
18
18
18
FF
FF
ENDCHAR
STARTCHAR H32
ENCODING 50
SWIDTH 650 0
DWIDTH 13 0
BBX 8 15 2 3
BITMAP
3C
7E
E7
C3
C3
03
07
06
0E
1C
38
70
E0
FF
FF
ENDCHAR
STARTCHAR H33
ENCODING 51
SWIDTH 650 0
DWIDTH 13 0
BBX 8 15 2 3
BITMAP
3C
7E
E7
C3
03
07
1F
1E
07
03
03
C3
E7
7E
3C
ENDCHAR
STARTCHAR H34
ENCODING 52
SWIDTH 650 0
DWIDTH 13 0
BBX 8 15 2 3
BITMAP
0E
1E
3E
36
66
66
C6
C6
FF
FF
06
06
06
06
06
ENDCHAR
STARTCHAR H35
ENCODING 53
SWIDTH 650 0
DWIDTH 13 0
BBX 8 15 2 3
BITMAP
FF
FF
C0
C0
C0
FC
FE
07
03
03
03
C3
E7
7E
3C
ENDCHAR
STARTCHAR H36
ENCODING 54
SWIDTH 650 0
DWIDTH 13 0
BBX 10 15 1 3
BITMAP
3F00
7F80
E1C0
C0C0
C000
C000
DF00
FF80
E1C0
C0C0
C0C0
C0C0
E1C0
7F80
3F00
ENDCHAR
STARTCHAR H37
ENCODING 55
SWIDTH 650 0
DWIDTH 13 0
BBX 8 15 2 3
BITMAP
FF
FF
C3
03
07
0E
0C
0C
18
18
18
30
30
30
30
ENDCHAR
STARTCHAR H38
ENCODING 56
SWIDTH 650 0
DWIDTH 13 0
BBX 10 15 1 3
BITMAP
3F00
7F80
E1C0
C0C0
C0C0
6180
7F80
3F00
6180
C0C0
C0C0
C0C0
E1C0
7F80
3F00
ENDCHAR
STARTCHAR H39
ENCODING 57
SWIDTH 650 0
DWIDTH 13 0
BBX 10 15 1 3
BITMAP
3F00
7F80
E1C0
C0C0
C0C0
C0C0
C0C0
E1C0
7FC0
3EC0
00C0
00C0
61C0
7F80
3F00
ENDCHAR
STARTCHAR H3a
ENCODING 58
SWIDTH 650 0
DWIDTH 13 0
BBX 2 9 5 3
BITMAP
C0
C0
C0
00
00
00
C0
C0
C0
ENDCHAR
STARTCHAR H3b
ENCODING 59
SWIDTH 650 0
DWIDTH 13 0
BBX 3 10 4 2
BITMAP
60
60
60
00
00
00
60
60
60
C0
ENDCHAR
STARTCHAR H3c
ENCODING 60
SWIDTH 650 0
DWIDTH 13 0
BBX 9 15 1 3
BITMAP
0180
0300
0600
0C00
1800
3000
6000
C000
6000
3000
1800
0C00
0600
0300
0180
ENDCHAR
STARTCHAR H3d
ENCODING 61
SWIDTH 650 0
DWIDTH 13 0
BBX 10 7 1 7
BITMAP
FFC0
FFC0
0000
0000
0000
FFC0
FFC0
ENDCHAR
STARTCHAR H3e
ENCODING 62
SWIDTH 650 0
DWIDTH 13 0
BBX 9 15 3 3
BITMAP
C000
6000
3000
1800
0C00
0600
0300
0180
0300
0600
0C00
1800
3000
6000
C000
ENDCHAR
STARTCHAR H3f
ENCODING 63
SWIDTH 650 0
DWIDTH 13 0
BBX 8 15 2 3
BITMAP
3C
7E
E7
C3
C3
07
0E
1C
18
18
18
00
18
18
18
ENDCHAR
STARTCHAR H40
ENCODING 64
SWIDTH 500 0
DWIDTH 10 0
BBX 9 15 1 3
BITMAP
3E00
6300
C180
CF80
DF80
D980
D980
D980
D980
D980
D980
CF00
C000
6000
3F80
ENDCHAR
STARTCHAR H41
ENCODING 65
SWIDTH 650 0
DWIDTH 13 0
BBX 10 15 1 3
BITMAP
0C00
0C00
0C00
1E00
1E00
1A00
3300
3300
3300
6180
7F80
7F80
C0C0
C0C0
C0C0
ENDCHAR
STARTCHAR H42
ENCODING 66
SWIDTH 650 0
DWIDTH 13 0
BBX 10 15 1 3
BITMAP
FF00
FF80
C0C0
C0C0
C0C0
C0C0
FF80
FF00
C180
C0C0
C0C0
C0C0
C0C0
FF80
FF00
ENDCHAR
STARTCHAR H43
ENCODING 67
SWIDTH 650 0
DWIDTH 13 0
BBX 10 15 1 3
BITMAP
3F00
7F80
E1C0
C0C0
C000
C000
C000
C000
C000
C000
C000
C0C0
E1C0
7F80
3F00
ENDCHAR
STARTCHAR H44
ENCODING 68
SWIDTH 650 0
DWIDTH 13 0
BBX 10 15 1 3
BITMAP
FE00
FF00
C380
C180
C1C0
C0C0
C0C0
C0C0
C0C0
C0C0
C1C0
C180
C380
FF00
FE00
ENDCHAR
STARTCHAR H45
ENCODING 69
SWIDTH 650 0
DWIDTH 13 0
BBX 10 15 1 3
BITMAP
FFC0
FFC0
C000
C000
C000
C000
FF00
FF00
C000
C000
C000
C000
C000
FFC0
FFC0
ENDCHAR
STARTCHAR H46
ENCODING 70
SWIDTH 650 0
DWIDTH 13 0
BBX 10 15 1 3
BITMAP
FFC0
FFC0
C000
C000
C000
C000
FF00
FF00
C000
C000
C000
C000
C000
C000
C000
ENDCHAR
STARTCHAR H47
ENCODING 71
SWIDTH 650 0
DWIDTH 13 0
BBX 10 15 1 3
BITMAP
3F00
7F80
E1C0
C0C0
C000
C000
C000
C7C0
C7C0
C0C0
C0C0
C0C0
E1C0
7F80
3F00
ENDCHAR
STARTCHAR H48
ENCODING 72
SWIDTH 650 0
DWIDTH 13 0
BBX 10 15 1 3
BITMAP
C0C0
C0C0
C0C0
C0C0
C0C0
C0C0
C0C0
FFC0
FFC0
C0C0
C0C0
C0C0
C0C0
C0C0
C0C0
ENDCHAR
STARTCHAR H49
ENCODING 73
SWIDTH 650 0
DWIDTH 13 0
BBX 8 15 2 3
BITMAP
FF
FF
18
18
18
18
18
18
18
18
18
18
18
FF
FF
ENDCHAR
STARTCHAR H4a
ENCODING 74
SWIDTH 650 0
DWIDTH 13 0
BBX 10 15 1 3
BITMAP
3FC0
3FC0
0300
0300
0300
0300
0300
0300
0300
0300
0300
C300
E700
7F00
3E00
ENDCHAR
STARTCHAR H4b
ENCODING 75
SWIDTH 650 0
DWIDTH 13 0
BBX 10 15 1 3
BITMAP
C0C0
C1C0
C380
C700
CE00
DC00
F800
F000
F800
DC00
CE00
C700
C380
C1C0
C0C0
ENDCHAR
STARTCHAR H4c
ENCODING 76
SWIDTH 650 0
DWIDTH 13 0
BBX 8 15 2 3
BITMAP
C0
C0
C0
C0
C0
C0
C0
C0
C0
C0
C0
C0
C0
FF
FF
ENDCHAR
STARTCHAR H4d
ENCODING 77
SWIDTH 650 0
DWIDTH 13 0
BBX 10 15 1 3
BITMAP
C0C0
E1C0
F3C0
FFC0
DEC0
CCC0
C0C0
C0C0
C0C0
C0C0
C0C0
C0C0
C0C0
C0C0
C0C0
ENDCHAR
STARTCHAR H4e
ENCODING 78
SWIDTH 650 0
DWIDTH 13 0
BBX 10 15 1 3
BITMAP
C0C0
E0C0
E0C0
F0C0
F0C0
D8C0
D8C0
CCC0
CCC0
C6C0
C6C0
C3C0
C3C0
C1C0
C1C0
ENDCHAR
STARTCHAR H4f
ENCODING 79
SWIDTH 650 0
DWIDTH 13 0
BBX 10 15 1 3
BITMAP
3F00
7F80
E1C0
C0C0
C0C0
C0C0
C0C0
C0C0
C0C0
C0C0
C0C0
C0C0
E1C0
7F80
3F00
ENDCHAR
STARTCHAR H50
ENCODING 80
SWIDTH 650 0
DWIDTH 13 0
BBX 10 15 1 3
BITMAP
FF00
FF80
C1C0
C0C0
C0C0
C0C0
C0C0
C180
FF80
FE00
C000
C000
C000
C000
C000
ENDCHAR
STARTCHAR H51
ENCODING 81
SWIDTH 650 0
DWIDTH 13 0
BBX 10 15 1 3
BITMAP
3F00
7F80
E1C0
C0C0
C0C0
C0C0
C0C0
C0C0
CCC0
CCC0
CEC0
C7C0
E380
7FC0
3EC0
ENDCHAR
STARTCHAR H52
ENCODING 82
SWIDTH 650 0
DWIDTH 13 0
BBX 10 15 1 3
BITMAP
FF00
FF80
C1C0
C0C0
C0C0
C0C0
C0C0
C180
FF80
FF00
C300
C180
C180
C0C0
C0C0
ENDCHAR
STARTCHAR H53
ENCODING 83
SWIDTH 650 0
DWIDTH 13 0
BBX 10 15 1 3
BITMAP
3F00
7F80
E1C0
C0C0
C000
E000
7800
3F00
0780
01C0
00C0
C0C0
E1C0
7F80
3F00
ENDCHAR
STARTCHAR H54
ENCODING 84
SWIDTH 650 0
DWIDTH 13 0
BBX 10 15 1 3
BITMAP
FFC0
FFC0
0C00
0C00
0C00
0C00
0C00
0C00
0C00
0C00
0C00
0C00
0C00
0C00
0C00
ENDCHAR
STARTCHAR H55
ENCODING 85
SWIDTH 650 0
DWIDTH 13 0
BBX 10 15 1 3
BITMAP
C0C0
C0C0
C0C0
C0C0
C0C0
C0C0
C0C0
C0C0
C0C0
C0C0
C0C0
C0C0
6180
7F80
3F00
ENDCHAR
STARTCHAR H56
ENCODING 86
SWIDTH 650 0
DWIDTH 13 0
BBX 10 15 1 3
BITMAP
C0C0
C0C0
C0C0
C0C0
E1C0
6180
6180
6180
7380
3300
3300
1E00
1E00
0C00
0C00
ENDCHAR
STARTCHAR H57
ENCODING 87
SWIDTH 650 0
DWIDTH 13 0
BBX 10 15 1 3
BITMAP
C0C0
C0C0
C0C0
C0C0
C0C0
C0C0
C0C0
C0C0
C0C0
CCC0
DEC0
FFC0
F3C0
E1C0
C0C0
ENDCHAR
STARTCHAR H58
ENCODING 88
SWIDTH 650 0
DWIDTH 13 0
BBX 10 15 1 3
BITMAP
C0C0
C0C0
6180
6180
3300
3300
1E00
0C00
1E00
3300
3300
6180
6180
C0C0
C0C0
ENDCHAR
STARTCHAR H59
ENCODING 89
SWIDTH 650 0
DWIDTH 13 0
BBX 10 15 1 3
BITMAP
C0C0
C0C0
6180
6180
3300
1E00
1E00
0C00
0C00
0C00
0C00
0C00
0C00
0C00
0C00
ENDCHAR
STARTCHAR H5a
ENCODING 90
SWIDTH 650 0
DWIDTH 13 0
BBX 10 15 1 3
BITMAP
FFC0
FFC0
00C0
0180
0100
0300
0600
0C00
1800
3000
2000
6000
C000
FFC0
FFC0
ENDCHAR
STARTCHAR H5b
ENCODING 91
SWIDTH 650 0
DWIDTH 13 0
BBX 6 15 1 3
BITMAP
FC
FC
C0
C0
C0
C0
C0
C0
C0
C0
C0
C0
C0
FC
FC
ENDCHAR
STARTCHAR H5c
ENCODING 92
SWIDTH 650 0
DWIDTH 13 0
BBX 10 15 1 3
BITMAP
C000
C000
6000
6000
3000
1800
1800
0C00
0600
0600
0300
0180
0180
00C0
00C0
ENDCHAR
STARTCHAR H5d
ENCODING 93
SWIDTH 650 0
DWIDTH 13 0
BBX 6 15 5 3
BITMAP
FC
FC
0C
0C
0C
0C
0C
0C
0C
0C
0C
0C
0C
FC
FC
ENDCHAR
STARTCHAR H5e
ENCODING 94
SWIDTH 650 0
DWIDTH 13 0
BBX 10 5 1 13
BITMAP
0C00
1E00
3300
7380
E1C0
ENDCHAR
STARTCHAR H5f
ENCODING 95
SWIDTH 650 0
DWIDTH 13 0
BBX 13 2 0 3
BITMAP
FFF8
FFF8
ENDCHAR
STARTCHAR H60
ENCODING 96
SWIDTH 650 0
DWIDTH 13 0
BBX 3 4 5 14
BITMAP
C0
C0
C0
60
ENDCHAR
STARTCHAR H61
ENCODING 97
SWIDTH 650 0
DWIDTH 13 0
BBX 10 8 0 5
BITMAP
7E00
0380
0380
7F80
E380
E380
E380
7DC0
ENDCHAR
STARTCHAR H62
ENCODING 98
SWIDTH 650 0
DWIDTH 13 0
BBX 10 13 0 5
BITMAP
F000
F000
7000
7000
7000
7E00
7380
7380
71C0
71C0
71C0
71C0
7F80
ENDCHAR
STARTCHAR H63
ENCODING 99
SWIDTH 650 0
DWIDTH 13 0
BBX 10 8 0 5
BITMAP
7F80
E1C0
E1C0
E000
E000
E1C0
E1C0
7F80
ENDCHAR
STARTCHAR H64
ENCODING 100
SWIDTH 650 0
DWIDTH 13 0
BBX 10 13 0 5
BITMAP
0F80
0F80
0380
0380
0380
1F80
7380
7380
E380
E380
E380
E380
7DC0
ENDCHAR
STARTCHAR H65
ENCODING 101
SWIDTH 650 0
DWIDTH 13 0
BBX 10 8 0 5
BITMAP
7F80
E1C0
E1C0
FFC0
E000
E1C0
E1C0
7F80
ENDCHAR
STARTCHAR H66
ENCODING 102
SWIDTH 650 0
DWIDTH 13 0
BBX 9 13 0 5
BITMAP
1E00
1E00
7380
7180
7180
7000
FC00
FC00
7000
7000
7000
7000
FC00
ENDCHAR
STARTCHAR H67
ENCODING 103
SWIDTH 650 0
DWIDTH 13 0
BBX 10 13 0 0
BITMAP
7DC0
E380
E380
E380
E380
7F80
7F80
0380
E380
E380
7E00
7E00
7E00
ENDCHAR
STARTCHAR H68
ENCODING 104
SWIDTH 650 0
DWIDTH 13 0
BBX 10 13 0 5
BITMAP
F000
F000
7000
7000
7000
7380
7DC0
7DC0
71C0
71C0
71C0
71C0
F1C0
ENDCHAR
STARTCHAR H69
ENCODING 105
SWIDTH 650 0
DWIDTH 13 0
BBX 6 13 3 5
BITMAP
70
70
70
00
00
F0
70
70
70
70
70
70
FC
ENDCHAR
STARTCHAR H6a
ENCODING 106
SWIDTH 650 0
DWIDTH 13 0
BBX 9 18 1 0
BITMAP
0380
0380
0380
0000
0000
0780
0380
0380
0380
0380
0380
0380
E380
E380
E380
3F00
3F00
3F00
ENDCHAR
STARTCHAR H6b
ENCODING 107
SWIDTH 650 0
DWIDTH 13 0
BBX 10 13 0 5
BITMAP
F000
F000
7000
7000
7000
71C0
7380
7380
7E00
7380
71C0
71C0
F1C0
ENDCHAR
STARTCHAR H6c
ENCODING 108
SWIDTH 650 0
DWIDTH 13 0
BBX 6 13 3 5
BITMAP
F0
F0
70
70
70
70
70
70
70
70
70
70
FC
ENDCHAR
STARTCHAR H6d
ENCODING 109
SWIDTH 650 0
DWIDTH 13 0
BBX 10 8 0 5
BITMAP
F380
FFC0
FFC0
EDC0
EDC0
EDC0
EDC0
E1C0
ENDCHAR
STARTCHAR H6e
ENCODING 110
SWIDTH 650 0
DWIDTH 13 0
BBX 10 8 0 5
BITMAP
EF80
71C0
71C0
71C0
71C0
71C0
71C0
71C0
ENDCHAR
STARTCHAR H6f
ENCODING 111
SWIDTH 650 0
DWIDTH 13 0
BBX 10 8 0 5
BITMAP
7F80
E1C0
E1C0
E1C0
E1C0
E1C0
E1C0
7F80
ENDCHAR
STARTCHAR H70
ENCODING 112
SWIDTH 650 0
DWIDTH 13 0
BBX 10 13 0 0
BITMAP
EF80
71C0
71C0
71C0
71C0
7F80
7F80
7000
7000
7000
FC00
FC00
FC00
ENDCHAR
STARTCHAR H71
ENCODING 113
SWIDTH 650 0
DWIDTH 13 0
BBX 10 13 0 0
BITMAP
7DC0
E380
E380
E380
E380
7F80
7F80
0380
0380
0380
0FC0
0FC0
0FC0
ENDCHAR
STARTCHAR H72
ENCODING 114
SWIDTH 650 0
DWIDTH 13 0
BBX 10 8 0 5
BITMAP
EF80
7DC0
7DC0
71C0
7000
7000
7000
FC00
ENDCHAR
STARTCHAR H73
ENCODING 115
SWIDTH 650 0
DWIDTH 13 0
BBX 10 8 0 5
BITMAP
7F80
E1C0
E1C0
7C00
0F80
E1C0
E1C0
7F80
ENDCHAR
STARTCHAR H74
ENCODING 116
SWIDTH 650 0
DWIDTH 13 0
BBX 10 13 0 5
BITMAP
0C00
0C00
1C00
1C00
1C00
FF80
1C00
1C00
1C00
1C00
1DC0
1DC0
0F80
ENDCHAR
STARTCHAR H75
ENCODING 117
SWIDTH 650 0
DWIDTH 13 0
BBX 10 8 0 5
BITMAP
E380
E380
E380
E380
E380
E380
E380
7DC0
ENDCHAR
STARTCHAR H76
ENCODING 118
SWIDTH 650 0
DWIDTH 13 0
BBX 9 8 1 5
BITMAP
E380
E380
E380
E380
E380
3F00
3F00
1C00
ENDCHAR
STARTCHAR H77
ENCODING 119
SWIDTH 650 0
DWIDTH 13 0
BBX 10 8 0 5
BITMAP
E1C0
E1C0
E1C0
EDC0
EDC0
FFC0
FFC0
7380
ENDCHAR
STARTCHAR H78
ENCODING 120
SWIDTH 650 0
DWIDTH 13 0
BBX 10 8 0 5
BITMAP
E1C0
7380
7380
1E00
1E00
7380
7380
E1C0
ENDCHAR
STARTCHAR H79
ENCODING 121
SWIDTH 650 0
DWIDTH 13 0
BBX 10 13 0 0
BITMAP
E1C0
E1C0
E1C0
E1C0
E1C0
7FC0
7FC0
01C0
0380
0380
FE00
FE00
FE00
ENDCHAR
STARTCHAR H7a
ENCODING 122
SWIDTH 650 0
DWIDTH 13 0
BBX 10 8 0 5
BITMAP
FFC0
E380
E380
0E00
1C00
71C0
71C0
FFC0
ENDCHAR
STARTCHAR H7b
ENCODING 123
SWIDTH 650 0
DWIDTH 13 0
BBX 9 15 1 3
BITMAP
0780
0E00
1C00
1800
1800
1800
7000
E000
7000
1800
1800
1800
1C00
0E00
0780
ENDCHAR
STARTCHAR H7c
ENCODING 124
SWIDTH 650 0
DWIDTH 13 0
BBX 2 15 5 3
BITMAP
C0
C0
C0
C0
C0
C0
C0
C0
C0
C0
C0
C0
C0
C0
C0
ENDCHAR
STARTCHAR H7d
ENCODING 125
SWIDTH 650 0
DWIDTH 13 0
BBX 9 15 3 3
BITMAP
F000
3800
1C00
0C00
0C00
0C00
0700
0380
0700
0C00
0C00
0C00
1C00
3800
F000
ENDCHAR
STARTCHAR H7e
ENCODING 126
SWIDTH 650 0
DWIDTH 13 0
BBX 10 4 1 14
BITMAP
3840
7CC0
EFC0
C780
ENDCHAR
STARTCHAR H7f
ENCODING 127
SWIDTH 650 0
DWIDTH 13 0
BBX 10 9 0 6
BITMAP
0C00
0C00
1E00
7380
7380
E1C0
E1C0
FFC0
FFC0
ENDCHAR
STARTCHAR H80
ENCODING 128
SWIDTH 650 0
DWIDTH 13 0
BBX 11 11 1 5
BITMAP
0400
0E00
0A00
1B00
1100
3180
2080
60C0
4040
C060
FFE0
ENDCHAR
STARTCHAR H81
ENCODING 129
SWIDTH 650 0
DWIDTH 13 0
BBX 11 11 1 5
BITMAP
FFE0
8020
8020
8020
8020
8020
8020
8020
8020
8020
FFE0
ENDCHAR
STARTCHAR H82
ENCODING 130
SWIDTH 650 0
DWIDTH 13 0
BBX 11 11 1 5
BITMAP
FFE0
8020
8020
FFE0
8020
8020
8020
8020
8020
8020
FFE0
ENDCHAR
STARTCHAR H83
ENCODING 131
SWIDTH 650 0
DWIDTH 13 0
BBX 11 11 1 4
BITMAP
FFE0
C060
4040
7FC0
2080
3180
1100
1B00
0A00
0E00
0400
ENDCHAR
STARTCHAR H84
ENCODING 132
SWIDTH 650 0
DWIDTH 13 0
BBX 11 11 1 5
BITMAP
0400
0E00
1B00
3180
60C0
C060
60C0
3180
1B00
0E00
0400
ENDCHAR
STARTCHAR H85
ENCODING 133
SWIDTH 650 0
DWIDTH 13 0
BBX 11 7 1 7
BITMAP
1F00
3180
60C0
C060
60C0
3180
1F00
ENDCHAR
STARTCHAR H86
ENCODING 134
SWIDTH 650 0
DWIDTH 13 0
BBX 11 11 1 5
BITMAP
0400
0E00
0A00
1B00
1100
3180
2080
60C0
4040
C060
8020
ENDCHAR
STARTCHAR H87
ENCODING 135
SWIDTH 650 0
DWIDTH 13 0
BBX 11 11 1 5
BITMAP
FFE0
8060
80A0
8120
8220
8420
8820
9020
A020
C020
FFE0
ENDCHAR
STARTCHAR H88
ENCODING 136
SWIDTH 650 0
DWIDTH 13 0
BBX 11 11 1 4
BITMAP
FFE0
C060
4040
60C0
2080
3180
1100
1B00
0A00
0E00
0400
ENDCHAR
STARTCHAR H89
ENCODING 137
SWIDTH 650 0
DWIDTH 13 0
BBX 10 15 1 3
BITMAP
FFC0
FFC0
00C0
00C0
00C0
00C0
3FC0
3FC0
00C0
00C0
00C0
00C0
00C0
FFC0
FFC0
ENDCHAR
STARTCHAR H8a
ENCODING 138
SWIDTH 550 0
DWIDTH 11 0
BBX 11 11 1 5
BITMAP
C060
60C0
3180
1B00
0E00
0400
0E00
1B00
3180
60C0
C060
ENDCHAR
STARTCHAR H8b
ENCODING 139
SWIDTH 650 0
DWIDTH 13 0
BBX 13 13 0 5
BITMAP
0F80
3060
4010
4010
8008
8008
8008
8008
8008
4010
4010
3060
0F80
ENDCHAR
STARTCHAR H8c
ENCODING 140
SWIDTH 650 0
DWIDTH 13 0
BBX 13 13 0 5
BITMAP
0200
0500
0880
1040
2020
4010
8008
4010
2020
1040
0880
0500
0200
ENDCHAR
STARTCHAR H8d
ENCODING 141
SWIDTH 600 0
DWIDTH 12 0
BBX 11 11 1 7
BITMAP
FFE0
FFE0
FFE0
FFE0
FFE0
FFE0
FFE0
FFE0
FFE0
FFE0
FFE0
ENDCHAR
STARTCHAR H8e
ENCODING 142
SWIDTH 650 0
DWIDTH 13 0
BBX 10 14 0 5
BITMAP
E1C0
E1C0
E1C0
0C00
1E00
1E00
7380
E1C0
E1C0
E1C0
FFC0
E1C0
E1C0
E1C0
ENDCHAR
STARTCHAR H8f
ENCODING 143
SWIDTH 650 0
DWIDTH 13 0
BBX 10 15 0 5
BITMAP
1E00
7380
1E00
1E00
0000
1E00
1E00
7380
E1C0
E1C0
E1C0
FFC0
E1C0
E1C0
E1C0
ENDCHAR
STARTCHAR H90
ENCODING 144
SWIDTH 650 0
DWIDTH 13 0
BBX 10 15 0 5
BITMAP
0E00
1C00
7000
7000
0000
FFC0
FFC0
71C0
7000
7000
7F80
7000
71C0
71C0
FFC0
ENDCHAR
STARTCHAR H91
ENCODING 145
SWIDTH 650 0
DWIDTH 13 0
BBX 10 10 0 5
BITMAP
E380
E380
7DC0
1DC0
1DC0
7FC0
EE00
EE00
EE00
73C0
ENDCHAR
STARTCHAR H92
ENCODING 146
SWIDTH 650 0
DWIDTH 13 0
BBX 10 13 0 5
BITMAP
1FC0
1FC0
7380
E380
E380
E380
FFC0
FFC0
E380
E380
E380
E380
E3C0
ENDCHAR
STARTCHAR H93
ENCODING 147
SWIDTH 650 0
DWIDTH 13 0
BBX 10 14 0 5
BITMAP
0C00
1E00
1E00
7380
0000
0000
7F80
E1C0
E1C0
E1C0
E1C0
E1C0
E1C0
7F80
ENDCHAR
STARTCHAR H94
ENCODING 148
SWIDTH 650 0
DWIDTH 13 0
BBX 10 13 0 5
BITMAP
E1C0
E1C0
E1C0
0000
0000
7F80
E1C0
E1C0
E1C0
E1C0
E1C0
E1C0
7F80
ENDCHAR
STARTCHAR H95
ENCODING 149
SWIDTH 650 0
DWIDTH 13 0
BBX 10 14 0 5
BITMAP
7000
1C00
1C00
0E00
0000
0000
7F80
E1C0
E1C0
E1C0
E1C0
E1C0
E1C0
7F80
ENDCHAR
STARTCHAR H96
ENCODING 150
SWIDTH 650 0
DWIDTH 13 0
BBX 10 14 0 5
BITMAP
1C00
7E00
7E00
E380
0000
0000
E380
E380
E380
E380
E380
E380
E380
7DC0
ENDCHAR
STARTCHAR H97
ENCODING 151
SWIDTH 650 0
DWIDTH 13 0
BBX 10 14 0 5
BITMAP
7000
1C00
1C00
0E00
0000
0000
E380
E380
E380
E380
E380
E380
E380
7DC0
ENDCHAR
STARTCHAR H98
ENCODING 152
SWIDTH 650 0
DWIDTH 13 0
BBX 10 18 0 0
BITMAP
E1C0
E1C0
E1C0
0000
0000
E1C0
E1C0
E1C0
E1C0
E1C0
7FC0
7FC0
01C0
0380
0380
7E00
7E00
7E00
ENDCHAR
STARTCHAR H99
ENCODING 153
SWIDTH 650 0
DWIDTH 13 0
BBX 10 14 0 5
BITMAP
E1C0
E1C0
E1C0
1E00
7380
7380
E1C0
E1C0
E1C0
E1C0
E1C0
7380
7380
1E00
ENDCHAR
STARTCHAR H9a
ENCODING 154
SWIDTH 650 0
DWIDTH 13 0
BBX 10 14 0 5
BITMAP
E1C0
E1C0
E1C0
0000
E1C0
E1C0
E1C0
E1C0
E1C0
E1C0
E1C0
E1C0
E1C0
7F80
ENDCHAR
STARTCHAR H9b
ENCODING 155
SWIDTH 650 0
DWIDTH 13 0
BBX 9 14 1 5
BITMAP
1C00
1C00
1C00
3F00
E380
E380
E000
E000
E000
E380
3F00
1C00
1C00
1C00
ENDCHAR
STARTCHAR H9c
ENCODING 156
SWIDTH 650 0
DWIDTH 13 0
BBX 10 14 0 5
BITMAP
1E00
7380
7380
7180
7000
7000
FC00
7000
7000
7000
7000
F1C0
F1C0
FF80
ENDCHAR
STARTCHAR H9d
ENCODING 157
SWIDTH 650 0
DWIDTH 13 0
BBX 9 13 1 5
BITMAP
E380
E380
E380
3F00
3F00
1C00
FF80
FF80
1C00
FF80
1C00
1C00
1C00
ENDCHAR
STARTCHAR H9e
ENCODING 158
SWIDTH 650 0
DWIDTH 13 0
BBX 10 14 0 5
BITMAP
FE00
E380
E380
E380
FE00
FE00
E180
E380
E380
EFC0
E380
E380
E380
E1C0
ENDCHAR
STARTCHAR H9f
ENCODING 159
SWIDTH 650 0
DWIDTH 13 0
BBX 10 19 0 0
BITMAP
03C0
0000
0000
0E00
0E00
0E00
0E00
7FC0
7FC0
0E00
0E00
0E00
0E00
0E00
EE00
EE00
7C00
7C00
7C00
ENDCHAR
STARTCHAR Ha0
ENCODING 160
SWIDTH 650 0
DWIDTH 13 0
BBX 10 14 0 5
BITMAP
0E00
1C00
1C00
7000
0000
0000
7E00
0380
0380
7F80
E380
E380
E380
7DC0
ENDCHAR
STARTCHAR Ha1
ENCODING 161
SWIDTH 650 0
DWIDTH 13 0
BBX 6 14 3 5
BITMAP
1C
70
70
E0
00
00
F0
70
70
70
70
70
70
FC
ENDCHAR
STARTCHAR Ha2
ENCODING 162
SWIDTH 650 0
DWIDTH 13 0
BBX 10 14 0 5
BITMAP
0E00
1C00
1C00
7000
0000
0000
7F80
E1C0
E1C0
E1C0
E1C0
E1C0
E1C0
7F80
ENDCHAR
STARTCHAR Ha3
ENCODING 163
SWIDTH 650 0
DWIDTH 13 0
BBX 10 14 0 5
BITMAP
0E00
1C00
1C00
7000
0000
0000
E380
E380
E380
E380
E380
E380
E380
7DC0
ENDCHAR
STARTCHAR Ha4
ENCODING 164
SWIDTH 650 0
DWIDTH 13 0
BBX 10 13 0 5
BITMAP
7DC0
7DC0
EF80
0000
0000
EF80
71C0
71C0
71C0
71C0
71C0
71C0
71C0
ENDCHAR
STARTCHAR Ha5
ENCODING 165
SWIDTH 650 0
DWIDTH 13 0
BBX 10 15 0 5
BITMAP
7DC0
EF80
0000
0000
E1C0
F1C0
F1C0
FDC0
FFC0
FFC0
EFC0
E3C0
E1C0
E1C0
E1C0
ENDCHAR
STARTCHAR Ha6
ENCODING 166
SWIDTH 650 0
DWIDTH 13 0
BBX 9 9 1 10
BITMAP
3F00
E700
E700
E700
3F80
3F80
0000
FF80
FF80
ENDCHAR
STARTCHAR Ha7
ENCODING 167
SWIDTH 650 0
DWIDTH 13 0
BBX 8 9 1 10
BITMAP
3C
E7
E7
E7
3C
3C
00
FF
FF
ENDCHAR
STARTCHAR Ha8
ENCODING 168
SWIDTH 650 0
DWIDTH 13 0
BBX 10 13 0 5
BITMAP
1C00
1C00
1C00
0000
0000
1C00
1C00
1C00
7000
E1C0
E1C0
E1C0
7F80
ENDCHAR
STARTCHAR Ha9
ENCODING 169
SWIDTH 650 0
DWIDTH 13 0
BBX 10 6 0 6
BITMAP
FFC0
FFC0
E000
E000
E000
E000
ENDCHAR
STARTCHAR Haa
ENCODING 170
SWIDTH 650 0
DWIDTH 13 0
BBX 10 6 0 6
BITMAP
FFC0
FFC0
01C0
01C0
01C0
01C0
ENDCHAR
STARTCHAR Hab
ENCODING 171
SWIDTH 650 0
DWIDTH 13 0
BBX 10 19 0 0
BITMAP
E000
E000
E000
E1C0
E380
E380
EE00
1C00
1C00
7000
EF80
81C0
81C0
0380
0E00
0E00
1FC0
1FC0
1FC0
ENDCHAR
STARTCHAR Hac
ENCODING 172
SWIDTH 650 0
DWIDTH 13 0
BBX 10 19 0 0
BITMAP
E000
E000
E000
E1C0
E380
E380
EE00
1C00
1C00
71C0
E3C0
8FC0
8FC0
1FC0
01C0
01C0
01C0
01C0
01C0
ENDCHAR
STARTCHAR Had
ENCODING 173
SWIDTH 650 0
DWIDTH 13 0
BBX 6 13 3 5
BITMAP
70
70
70
00
00
70
70
70
FC
FC
FC
FC
70
ENDCHAR
STARTCHAR Hae
ENCODING 174
SWIDTH 650 0
DWIDTH 13 0
BBX 10 7 0 8
BITMAP
1DC0
1DC0
7380
EE00
EE00
7380
1DC0
ENDCHAR
STARTCHAR Haf
ENCODING 175
SWIDTH 650 0
DWIDTH 13 0
BBX 10 7 0 8
BITMAP
EE00
EE00
7380
1DC0
1DC0
7380
EE00
ENDCHAR
STARTCHAR Hb0
ENCODING 176
SWIDTH 650 0
DWIDTH 13 0
BBX 12 19 0 0
BITMAP
0060
0F60
1FC0
39C0
31C0
33C0
33C0
36C0
36C0
36C0
3CC0
3CC0
38C0
39C0
7F80
6F00
6000
FFF0
FFF0
ENDCHAR
STARTCHAR Hb1
ENCODING 177
SWIDTH 650 0
DWIDTH 13 0
BBX 12 18 0 0
BITMAP
0600
0E00
1E00
3E00
3600
0600
0600
0600
0600
0600
0600
0600
0600
3FC0
3FC0
0000
FFF0
FFF0
ENDCHAR
STARTCHAR Hb2
ENCODING 178
SWIDTH 650 0
DWIDTH 13 0
BBX 12 18 0 0
BITMAP
0F00
1F80
39C0
30C0
30C0
00C0
01C0
0180
0380
0700
0E00
1C00
3800
3FC0
3FC0
0000
FFF0
FFF0
ENDCHAR
STARTCHAR Hb3
ENCODING 179
SWIDTH 650 0
DWIDTH 13 0
BBX 12 18 0 0
BITMAP
0F00
1F80
39C0
30C0
00C0
01C0
07C0
0780
01C0
00C0
00C0
30C0
39C0
1F80
0F00
0000
FFF0
FFF0
ENDCHAR
STARTCHAR Hb4
ENCODING 180
SWIDTH 650 0
DWIDTH 13 0
BBX 12 18 0 0
BITMAP
0380
0780
0F80
0D80
1980
1980
3180
3180
3FC0
3FC0
0180
0180
0180
0180
0180
0000
FFF0
FFF0
ENDCHAR
STARTCHAR Hb5
ENCODING 181
SWIDTH 650 0
DWIDTH 13 0
BBX 12 18 0 0
BITMAP
3FC0
3FC0
3000
3000
3000
3F00
3F80
01C0
00C0
00C0
00C0
30C0
39C0
1F80
0F00
0000
FFF0
FFF0
ENDCHAR
STARTCHAR Hb6
ENCODING 182
SWIDTH 650 0
DWIDTH 13 0
BBX 12 18 0 0
BITMAP
1F80
3FC0
70E0
6060
6000
6000
6F80
7FC0
70E0
6060
6060
6060
70E0
3FC0
1F80
0000
FFF0
FFF0
ENDCHAR
STARTCHAR Hb7
ENCODING 183
SWIDTH 650 0
DWIDTH 13 0
BBX 12 18 0 0
BITMAP
3FC0
3FC0
30C0
00C0
01C0
0380
0300
0300
0600
0600
0600
0C00
0C00
0C00
0C00
0000
FFF0
FFF0
ENDCHAR
STARTCHAR Hb8
ENCODING 184
SWIDTH 650 0
DWIDTH 13 0
BBX 12 18 0 0
BITMAP
1F80
3FC0
70E0
6060
6060
30C0
3FC0
1F80
30C0
6060
6060
6060
70E0
3FC0
1F80
0000
FFF0
FFF0
ENDCHAR
STARTCHAR Hb9
ENCODING 185
SWIDTH 650 0
DWIDTH 13 0
BBX 12 18 0 0
BITMAP
1F80
3FC0
70E0
6060
6060
6060
6060
70E0
3FE0
1F60
0060
0060
30E0
3FC0
1F80
0000
FFF0
FFF0
ENDCHAR
STARTCHAR Hba
ENCODING 186
SWIDTH 650 0
DWIDTH 13 0
BBX 12 7 0 8
BITMAP
FFF0
FFF0
FFF0
FFF0
FFF0
FFF0
FFF0
ENDCHAR
STARTCHAR Hbb
ENCODING 187
SWIDTH 650 0
DWIDTH 13 0
BBX 12 16 0 3
BITMAP
7000
7C00
7C00
7E00
FF80
FF80
FFC0
FFF0
FFF0
FFC0
FF80
7E00
7E00
7C00
7000
7000
ENDCHAR
STARTCHAR Hbc
ENCODING 188
SWIDTH 650 0
DWIDTH 13 0
BBX 10 11 0 9
BITMAP
1DC0
1DC0
1DC0
1DC0
1DC0
1DC0
1DC0
FDC0
01C0
01C0
FFC0
ENDCHAR
STARTCHAR Hbd
ENCODING 189
SWIDTH 650 0
DWIDTH 13 0
BBX 10 11 0 9
BITMAP
1DC0
1DC0
1DC0
1DC0
1DC0
1DC0
1DC0
1DC0
1DC0
1DC0
FFC0
ENDCHAR
STARTCHAR Hbe
ENCODING 190
SWIDTH 650 0
DWIDTH 13 0
BBX 7 11 0 9
BITMAP
0E
0E
0E
0E
0E
0E
0E
FE
0E
0E
FE
ENDCHAR
STARTCHAR Hbf
ENCODING 191
SWIDTH 650 0
DWIDTH 13 0
BBX 7 10 0 0
BITMAP
FE
0E
0E
0E
0E
0E
0E
0E
0E
0E
ENDCHAR
STARTCHAR Hc0
ENCODING 192
SWIDTH 650 0
DWIDTH 13 0
BBX 3 11 4 9
BITMAP
E0
E0
E0
E0
E0
E0
E0
E0
E0
E0
E0
ENDCHAR
STARTCHAR Hc1
ENCODING 193
SWIDTH 650 0
DWIDTH 13 0
BBX 12 18 0 0
BITMAP
0600
0600
0600
0F00
0F00
0D00
1980
1980
1980
30C0
3FC0
3FC0
6060
6060
6060
0000
FFF0
FFF0
ENDCHAR
STARTCHAR Hc2
ENCODING 194
SWIDTH 650 0
DWIDTH 13 0
BBX 12 18 0 0
BITMAP
7F80
7FC0
6060
6060
6060
6060
7FC0
7F80
60C0
6060
6060
6060
6060
7FC0
7F80
0000
FFF0
FFF0
ENDCHAR
STARTCHAR Hc3
ENCODING 195
SWIDTH 650 0
DWIDTH 13 0
BBX 12 18 0 0
BITMAP
1F80
3FC0
70E0
6060
6000
6000
6000
6000
6000
6000
6000
6060
70E0
3FC0
1F80
0000
FFF0
FFF0
ENDCHAR
STARTCHAR Hc4
ENCODING 196
SWIDTH 650 0
DWIDTH 13 0
BBX 12 18 0 0
BITMAP
7F80
7FC0
60E0
6060
6060
6060
6060
6060
6060
6060
6060
6060
60E0
7FC0
7F80
0000
FFF0
FFF0
ENDCHAR
STARTCHAR Hc5
ENCODING 197
SWIDTH 650 0
DWIDTH 13 0
BBX 12 18 0 0
BITMAP
7FE0
7FE0
6000
6000
6000
6000
7F80
7F80
6000
6000
6000
6000
6000
7FE0
7FE0
0000
FFF0
FFF0
ENDCHAR
STARTCHAR Hc6
ENCODING 198
SWIDTH 650 0
DWIDTH 13 0
BBX 12 18 0 0
BITMAP
7FE0
7FE0
6000
6000
6000
6000
7F80
7F80
6000
6000
6000
6000
6000
6000
6000
0000
FFF0
FFF0
ENDCHAR
STARTCHAR Hc7
ENCODING 199
SWIDTH 650 0
DWIDTH 13 0
BBX 12 18 0 0
BITMAP
1F80
3FC0
70E0
6060
6000
6000
6000
63E0
63E0
6060
6060
6060
70E0
3FC0
1F80
0000
FFF0
FFF0
ENDCHAR
STARTCHAR Hc8
ENCODING 200
SWIDTH 650 0
DWIDTH 13 0
BBX 12 18 0 0
BITMAP
6060
6060
6060
6060
6060
6060
6060
7FE0
7FE0
6060
6060
6060
6060
6060
6060
0000
FFF0
FFF0
ENDCHAR
STARTCHAR Hc9
ENCODING 201
SWIDTH 650 0
DWIDTH 13 0
BBX 12 18 0 0
BITMAP
3FC0
3FC0
0600
0600
0600
0600
0600
0600
0600
0600
0600
0600
0600
3FC0
3FC0
0000
FFF0
FFF0
ENDCHAR
STARTCHAR Hca
ENCODING 202
SWIDTH 650 0
DWIDTH 13 0
BBX 12 18 0 0
BITMAP
1FE0
1FE0
0180
0180
0180
0180
0180
0180
0180
0180
0180
6180
7380
3F80
1F00
0000
FFF0
FFF0
ENDCHAR
STARTCHAR Hcb
ENCODING 203
SWIDTH 650 0
DWIDTH 13 0
BBX 12 18 0 0
BITMAP
6060
60E0
61C0
6380
6700
6E00
7C00
7800
7C00
6E00
6700
6380
61C0
60E0
6060
0000
FFF0
FFF0
ENDCHAR
STARTCHAR Hcc
ENCODING 204
SWIDTH 650 0
DWIDTH 13 0
BBX 12 18 0 0
BITMAP
3000
3000
3000
3000
3000
3000
3000
3000
3000
3000
3000
3000
3000
3FC0
3FC0
0000
FFF0
FFF0
ENDCHAR
STARTCHAR Hcd
ENCODING 205
SWIDTH 650 0
DWIDTH 13 0
BBX 12 18 0 0
BITMAP
6060
70E0
79E0
7FE0
6F60
6660
6060
6060
6060
6060
6060
6060
6060
6060
6060
0000
FFF0
FFF0
ENDCHAR
STARTCHAR Hce
ENCODING 206
SWIDTH 650 0
DWIDTH 13 0
BBX 12 18 0 0
BITMAP
6060
7060
7060
7860
7860
6C60
6C60
6660
6660
6360
6360
61E0
61E0
60E0
60E0
0000
FFF0
FFF0
ENDCHAR
STARTCHAR Hcf
ENCODING 207
SWIDTH 650 0
DWIDTH 13 0
BBX 12 18 0 0
BITMAP
1F80
3FC0
70E0
6060
6060
6060
6060
6060
6060
6060
6060
6060
70E0
3FC0
1F80
0000
FFF0
FFF0
ENDCHAR
STARTCHAR Hd0
ENCODING 208
SWIDTH 650 0
DWIDTH 13 0
BBX 12 18 0 0
BITMAP
7F80
7FC0
60E0
6060
6060
6060
6060
60C0
7FC0
7F00
6000
6000
6000
6000
6000
0000
FFF0
FFF0
ENDCHAR
STARTCHAR Hd1
ENCODING 209
SWIDTH 650 0
DWIDTH 13 0
BBX 12 18 0 0
BITMAP
1F80
3FC0
70E0
6060
6060
6060
6060
6060
6660
6660
6760
63E0
71C0
3FE0
1F60
0000
FFF0
FFF0
ENDCHAR
STARTCHAR Hd2
ENCODING 210
SWIDTH 650 0
DWIDTH 13 0
BBX 12 18 0 0
BITMAP
7F80
7FC0
60E0
6060
6060
6060
6060
60C0
7FC0
7F80
6180
60C0
60C0
6060
6060
0000
FFF0
FFF0
ENDCHAR
STARTCHAR Hd3
ENCODING 211
SWIDTH 650 0
DWIDTH 13 0
BBX 12 18 0 0
BITMAP
1F80
3FC0
70E0
6060
6000
7000
3C00
1F80
03C0
00E0
0060
6060
70E0
3FC0
1F80
0000
FFF0
FFF0
ENDCHAR
STARTCHAR Hd4
ENCODING 212
SWIDTH 650 0
DWIDTH 13 0
BBX 12 18 0 0
BITMAP
7FE0
7FE0
0600
0600
0600
0600
0600
0600
0600
0600
0600
0600
0600
0600
0600
0000
FFF0
FFF0
ENDCHAR
STARTCHAR Hd5
ENCODING 213
SWIDTH 650 0
DWIDTH 13 0
BBX 12 18 0 0
BITMAP
6060
6060
6060
6060
6060
6060
6060
6060
6060
6060
6060
6060
30C0
3FC0
1F80
0000
FFF0
FFF0
ENDCHAR
STARTCHAR Hd6
ENCODING 214
SWIDTH 650 0
DWIDTH 13 0
BBX 12 18 0 0
BITMAP
6060
6060
6060
6060
70E0
30C0
30C0
30C0
39C0
1980
1980
0F00
0F00
0600
0600
0000
FFF0
FFF0
ENDCHAR
STARTCHAR Hd7
ENCODING 215
SWIDTH 650 0
DWIDTH 13 0
BBX 12 18 0 0
BITMAP
6060
6060
6060
6060
6060
6060
6060
6060
6060
6660
6F60
7FE0
79E0
70E0
6060
0000
FFF0
FFF0
ENDCHAR
STARTCHAR Hd8
ENCODING 216
SWIDTH 650 0
DWIDTH 13 0
BBX 12 18 0 0
BITMAP
6060
6060
30C0
30C0
1980
1980
0F00
0600
0F00
1980
1980
30C0
30C0
6060
6060
0000
FFF0
FFF0
ENDCHAR
STARTCHAR Hd9
ENCODING 217
SWIDTH 650 0
DWIDTH 13 0
BBX 12 18 0 0
BITMAP
6060
6060
30C0
30C0
1980
0F00
0F00
0600
0600
0600
0600
0600
0600
0600
0600
0000
FFF0
FFF0
ENDCHAR
STARTCHAR Hda
ENCODING 218
SWIDTH 650 0
DWIDTH 13 0
BBX 12 18 0 0
BITMAP
7FE0
7FE0
0060
00C0
0080
0180
0300
0600
0C00
1800
1000
3000
6000
7FE0
7FE0
0000
FFF0
FFF0
ENDCHAR
STARTCHAR Hdb
ENCODING 219
SWIDTH 650 0
DWIDTH 13 0
BBX 10 13 0 5
BITMAP
7F80
7F80
E1C0
E1C0
E1C0
EFC0
EFC0
EFC0
EFC0
EF80
E000
E000
7F80
ENDCHAR
STARTCHAR Hdc
ENCODING 220
SWIDTH 650 0
DWIDTH 13 0
BBX 0 0 0 0
BITMAP
ENDCHAR
STARTCHAR Hdd
ENCODING 221
SWIDTH 650 0
DWIDTH 13 0
BBX 6 20 0 0
BITMAP
FC
FC
FC
FC
FC
FC
FC
FC
FC
FC
FC
FC
FC
FC
FC
FC
FC
FC
FC
FC
ENDCHAR
STARTCHAR Hde
ENCODING 222
SWIDTH 650 0
DWIDTH 13 0
BBX 2 20 4 0
BITMAP
C0
C0
C0
C0
C0
C0
C0
C0
C0
C0
C0
C0
C0
C0
C0
C0
C0
C0
C0
C0
ENDCHAR
STARTCHAR Hdf
ENCODING 223
SWIDTH 650 0
DWIDTH 13 0
BBX 11 11 1 5
BITMAP
0400
0400
0E00
0E00
FFE0
7FC0
3F80
3F80
3B80
3180
4040
ENDCHAR
STARTCHAR He0
ENCODING 224
SWIDTH 650 0
DWIDTH 13 0
BBX 7 13 3 4
BITMAP
10
28
28
44
44
82
82
82
44
44
28
28
10
ENDCHAR
STARTCHAR He1
ENCODING 225
SWIDTH 650 0
DWIDTH 13 0
BBX 11 11 1 5
BITMAP
0E00
3180
4040
4040
8020
8420
8020
4040
4040
3180
0E00
ENDCHAR
STARTCHAR He2
ENCODING 226
SWIDTH 650 0
DWIDTH 13 0
BBX 13 13 0 4
BITMAP
FFF8
8708
98C8
A028
A028
C018
C218
C018
A028
A028
98C8
8708
FFF8
ENDCHAR
STARTCHAR He3
ENCODING 227
SWIDTH 650 0
DWIDTH 13 0
BBX 10 12 0 4
BITMAP
6000
1000
1000
1000
FE00
1200
1200
1200
6200
0200
0200
1FC0
ENDCHAR
STARTCHAR He4
ENCODING 228
SWIDTH 650 0
DWIDTH 13 0
BBX 13 13 0 4
BITMAP
0200
0200
0200
0200
0000
0000
F078
0000
0000
0200
0200
0200
0200
ENDCHAR
STARTCHAR He5
ENCODING 229
SWIDTH 650 0
DWIDTH 13 0
BBX 13 13 0 4
BITMAP
0200
0200
0200
0200
0200
0200
FFF8
0200
0200
0200
0200
0200
0200
ENDCHAR
STARTCHAR He6
ENCODING 230
SWIDTH 650 0
DWIDTH 13 0
BBX 10 12 0 3
BITMAP
71C0
71C0
71C0
71C0
71C0
71C0
7F80
7000
7000
7000
E000
E000
ENDCHAR
STARTCHAR He7
ENCODING 231
SWIDTH 650 0
DWIDTH 13 0
BBX 10 10 0 5
BITMAP
7DC0
7DC0
EF80
0E00
0E00
0E00
0E00
0E00
0E00
0E00
ENDCHAR
STARTCHAR He8
ENCODING 232
SWIDTH 650 0
DWIDTH 13 0
BBX 9 13 1 5
BITMAP
FF80
FF80
1C00
3F00
3F00
E380
E380
E380
E380
3F00
1C00
1C00
FF80
ENDCHAR
STARTCHAR He9
ENCODING 233
SWIDTH 650 0
DWIDTH 13 0
BBX 10 13 0 5
BITMAP
1E00
1E00
7380
E1C0
E1C0
E1C0
FFC0
FFC0
E1C0
E1C0
7380
7380
1E00
ENDCHAR
STARTCHAR Hea
ENCODING 234
SWIDTH 650 0
DWIDTH 13 0
BBX 10 13 0 5
BITMAP
1E00
1E00
7380
E1C0
E1C0
E1C0
E1C0
E1C0
7380
7380
7380
7380
F3C0
ENDCHAR
STARTCHAR Heb
ENCODING 235
SWIDTH 650 0
DWIDTH 13 0
BBX 9 13 1 5
BITMAP
1F80
1F80
3800
1C00
1C00
0700
3F80
3F80
E380
E380
E380
E380
3F00
ENDCHAR
STARTCHAR Hec
ENCODING 236
SWIDTH 650 0
DWIDTH 13 0
BBX 9 5 1 8
BITMAP
FF80
0000
0000
0000
FF80
ENDCHAR
STARTCHAR Hed
ENCODING 237
SWIDTH 650 0
DWIDTH 13 0
BBX 13 13 0 4
BITMAP
0F80
3260
4210
4010
8008
8008
E038
8008
8008
4010
4210
3260
0F80
ENDCHAR
STARTCHAR Hee
ENCODING 238
SWIDTH 650 0
DWIDTH 13 0
BBX 13 13 0 4
BITMAP
0500
0500
0500
0500
0500
FDF8
0000
FDF8
0500
0500
0500
0500
0500
ENDCHAR
STARTCHAR Hef
ENCODING 239
SWIDTH 650 0
DWIDTH 13 0
BBX 13 13 0 4
BITMAP
0200
0200
0200
0200
0200
0200
FFF8
0200
0200
0200
0200
0200
0200
ENDCHAR
STARTCHAR Hf0
ENCODING 240
SWIDTH 650 0
DWIDTH 13 0
BBX 11 11 1 5
BITMAP
0400
0A00
0A00
1100
1100
2080
2080
4040
4040
8020
FFE0
ENDCHAR
STARTCHAR Hf1
ENCODING 241
SWIDTH 650 0
DWIDTH 13 0
BBX 11 11 1 5
BITMAP
0400
0A00
0A00
1100
1100
2080
2080
4440
4040
8420
8420
ENDCHAR
STARTCHAR Hf2
ENCODING 242
SWIDTH 650 0
DWIDTH 13 0
BBX 5 11 4 5
BITMAP
20
A8
70
A8
20
20
20
20
20
20
20
ENDCHAR
STARTCHAR Hf3
ENCODING 243
SWIDTH 650 0
DWIDTH 13 0
BBX 5 5 4 8
BITMAP
20
A8
70
A8
20
ENDCHAR
STARTCHAR Hf4
ENCODING 244
SWIDTH 650 0
DWIDTH 13 0
BBX 11 11 1 5
BITMAP
0400
1F00
2080
4040
4040
C060
4040
4040
2080
1F00
0400
ENDCHAR
STARTCHAR Hf5
ENCODING 245
SWIDTH 650 0
DWIDTH 13 0
BBX 9 9 2 6
BITMAP
3E00
4100
9C80
A280
A280
A280
9C80
4100
3E00
ENDCHAR
STARTCHAR Hf6
ENCODING 246
SWIDTH 650 0
DWIDTH 13 0
BBX 11 11 1 5
BITMAP
0400
1F00
2080
4E40
5140
D160
5140
4E40
2080
1F00
0400
ENDCHAR
STARTCHAR Hf7
ENCODING 247
SWIDTH 650 0
DWIDTH 13 0
BBX 9 9 2 6
BITMAP
3E00
4100
8080
8080
8080
8080
8080
4100
3E00
ENDCHAR
STARTCHAR Hf8
ENCODING 248
SWIDTH 650 0
DWIDTH 13 0
BBX 11 11 1 5
BITMAP
8420
4440
2480
1F00
1100
F1E0
1100
1F00
2480
4440
8420
ENDCHAR
STARTCHAR Hf9
ENCODING 249
SWIDTH 650 0
DWIDTH 13 0
BBX 9 9 2 6
BITMAP
3E00
4100
9480
9480
9C80
9480
9480
4100
3E00
ENDCHAR
STARTCHAR Hfa
ENCODING 250
SWIDTH 650 0
DWIDTH 13 0
BBX 9 9 2 6
BITMAP
0800
0800
0800
0800
FF80
0800
0800
0800
0800
ENDCHAR
STARTCHAR Hfb
ENCODING 251
SWIDTH 650 0
DWIDTH 13 0
BBX 9 9 2 6
BITMAP
8080
4100
2200
1400
0800
1400
2200
4100
8080
ENDCHAR
STARTCHAR Hfc
ENCODING 252
SWIDTH 650 0
DWIDTH 13 0
BBX 5 5 4 8
BITMAP
70
F8
F8
F8
70
ENDCHAR
STARTCHAR Hfd
ENCODING 253
SWIDTH 650 0
DWIDTH 13 0
BBX 9 9 2 6
BITMAP
3E00
4100
9C80
BE80
BE80
BE80
9C80
4100
3E00
ENDCHAR
STARTCHAR Hfe
ENCODING 254
SWIDTH 650 0
DWIDTH 13 0
BBX 9 9 2 6
BITMAP
FF80
8080
8080
8080
8080
8080
8080
8080
FF80
ENDCHAR
STARTCHAR Hff
ENCODING 255
SWIDTH 650 0
DWIDTH 13 0
BBX 0 0 0 0
BITMAP
ENDCHAR
ENDFONT
